<svg width="39" height="28" viewBox="0 0 39 28" fill="none" xmlns="http://www.w3.org/2000/svg">
<path d="M1.20508 27.3257C0.539532 27.3257 0 26.7862 0 26.1206V2.98611C0 1.70932 1.03504 0.674271 2.31184 0.674271C3.16754 0.674271 3.95325 1.14693 4.35419 1.90289L14.9849 21.9465C15.522 22.9563 15.9501 23.9561 16.2691 24.946C16.3146 25.0869 16.4579 25.1729 16.6031 25.1438C16.7533 25.1138 16.8535 24.9714 16.8336 24.8195C16.7189 23.9404 16.6615 22.9944 16.6615 21.9815V1.86189C16.6615 1.20598 17.1932 0.674271 17.8491 0.674271C18.505 0.674271 19.0368 1.20598 19.0368 1.86188V25.0139C19.0368 26.2907 18.0017 27.3257 16.7249 27.3257C15.8692 27.3257 15.0835 26.8531 14.6826 26.0971L4.05186 6.05346C3.74913 5.49459 3.50463 5.00557 3.31833 4.58641C3.17743 4.22409 3.02783 3.77477 2.86952 3.23845C2.82644 3.09248 2.67944 3.00263 2.5302 3.03248C2.38281 3.06195 2.28202 3.19844 2.29543 3.34815C2.37191 4.20212 2.41016 5.10389 2.41016 6.05346V26.1206C2.41016 26.7862 1.87063 27.3257 1.20508 27.3257Z" fill="#9EA2A4"/>
<path d="M21.7648 26.1206C21.7648 26.7862 21.2253 27.3257 20.5597 27.3257C19.8942 27.3257 19.3547 26.7862 19.3547 26.1206V1.87935C19.3547 1.2138 19.8942 0.674271 20.5597 0.674271C21.2253 0.674271 21.7648 1.2138 21.7648 1.87935V26.1206Z" fill="#9EA2A4"/>
<path d="M23.2682 27.3257C22.6026 27.3257 22.0631 26.7862 22.0631 26.1206V1.87935C22.0631 1.2138 22.6026 0.674271 23.2682 0.674271C23.9337 0.674271 24.4733 1.2138 24.4733 1.87935V12.8648C24.4733 13.0191 24.5984 13.1442 24.7527 13.1442C24.907 13.1442 25.0292 13.0178 25.0608 12.8668C25.1084 12.6389 25.2153 12.4171 25.3814 12.2011C25.6143 11.8751 25.9054 11.5374 26.2547 11.1881L36.1758 0.996181C36.3761 0.790367 36.6511 0.674271 36.9384 0.674271C37.8794 0.674271 38.3574 1.80597 37.7012 2.48054L29.0361 11.389C27.9121 12.5446 27.9023 14.382 29.0139 15.5495L38.3562 25.3613C39.061 26.1016 38.5363 27.3257 37.5141 27.3257C37.1943 27.3257 36.8886 27.194 36.669 26.9615L26.2547 15.9386C25.9985 15.6592 25.6958 15.3099 25.3465 14.8907C25.0825 14.574 24.8585 14.2838 24.6743 14.0203C24.5814 13.8873 24.3977 13.8519 24.2657 13.9462C24.1322 14.0415 24.1094 14.2286 24.1987 14.3662C24.3038 14.5283 24.3721 14.6798 24.4034 14.8208C24.45 15.0071 24.4733 15.403 24.4733 16.0085V26.1206C24.4733 26.7862 23.9337 27.3257 23.2682 27.3257Z" fill="#9EA2A4"/>
</svg>
