<svg width="1212" height="713" viewBox="0 0 1212 713" fill="none" xmlns="http://www.w3.org/2000/svg">
<mask id="mask0_560_8" style="mask-type:alpha" maskUnits="userSpaceOnUse" x="0" y="0" width="1212" height="713">
<path d="M36.6623 705.813H0.767578V1.08093H55.2999L125.709 556.652H127.78L126.399 1.08093H163.674V705.813H109.142L42.1845 155.646H38.0428L36.6623 705.813Z" fill="white"/>
<path d="M220.304 705.813H180.958V1.08093H220.304V705.813Z" fill="white"/>
<path d="M273.235 705.813H235.96V1.08093H273.235V256.168H279.448L329.148 1.08093H369.875L322.245 242.117C318.563 262.293 313.732 280.308 307.749 296.161C301.767 312.013 291.182 319.219 275.996 317.778V329.668C290.722 328.947 300.616 332.55 305.678 340.477C310.74 347.682 314.882 359.932 318.103 377.226L376.777 705.813H337.431L281.518 395.601H273.235V705.813Z" fill="white"/>
<path d="M413.734 705.813H377.149V1.08093H479.311V61.6101H413.734V304.808H464.815V362.094H413.734V705.813Z" fill="white"/>
<path d="M500.176 705.813H464.281L509.84 1.08093H562.301L609.241 705.813H571.275L558.85 496.123H512.601L500.176 705.813ZM515.362 449.645H556.089L537.451 131.867H534.69L515.362 449.645Z" fill="white"/>
<path d="M611.09 705.813V1.08093H680.119C687.021 1.08093 693.924 2.88239 700.827 6.48531C707.73 10.8088 713.942 16.9338 719.465 24.8602C724.987 33.5072 729.589 44.316 733.27 57.2866C736.492 70.2571 738.102 85.7497 738.102 103.764V245.359C738.102 294.359 725.447 318.859 700.137 318.859V329.668C701.057 329.668 701.978 329.668 702.898 329.668C726.368 329.668 738.102 350.204 738.102 391.278V705.813H698.756V395.601C698.756 363.896 692.544 348.043 680.119 348.043H648.366V705.813H611.09ZM698.756 52.963H648.366V300.484H680.119C692.544 300.484 698.756 284.271 698.756 251.845V52.963Z" fill="white"/>
<path d="M866.338 610.696C866.338 641.681 861.046 666.541 850.462 685.277C839.878 703.291 824.461 712.298 804.213 712.298C784.885 712.298 770.389 702.21 760.725 682.034C751.061 661.858 746.229 638.078 746.229 610.696V388.035H785.575V600.968C785.575 613.218 786.726 626.189 789.027 639.88C791.788 653.571 798.231 660.416 808.355 660.416C812.957 660.416 816.408 658.255 818.709 653.931C821.47 649.608 823.311 644.564 824.231 638.799C825.612 632.314 826.302 625.828 826.302 619.343C826.762 612.137 826.992 606.012 826.992 600.968V1.08093H866.338V610.696Z" fill="white"/>
<path d="M907.038 705.813H871.143L916.702 1.08093H969.164L1016.1 705.813H978.137L965.712 496.123H919.463L907.038 705.813ZM922.224 449.645H962.951L944.313 131.867H941.552L922.224 449.645Z" fill="white"/>
<path d="M1051.78 705.813H1015.88V0H1074.56L1112.52 506.932H1113.21L1151.87 0H1211.23V705.813H1174.65V154.566H1171.2L1127.71 705.813H1098.03L1055.92 154.566H1051.78V705.813Z" fill="white"/>
</mask>
<g mask="url(#mask0_560_8)">
<g filter="url(#filter0_f_560_8)">
<rect x="-247.242" y="529.304" width="1396.79" height="1200.28" rx="213.724" transform="rotate(-55.1528 -247.242 529.304)" fill="white"/>
</g>
</g>
<defs>
<filter id="filter0_f_560_8" x="-393.467" y="-763.235" width="2075.61" height="2124.59" filterUnits="userSpaceOnUse" color-interpolation-filters="sRGB">
<feFlood flood-opacity="0" result="BackgroundImageFix"/>
<feBlend mode="normal" in="SourceGraphic" in2="BackgroundImageFix" result="shape"/>
<feGaussianBlur stdDeviation="115" result="effect1_foregroundBlur_560_8"/>
</filter>
</defs>
</svg>
