<svg width="29" height="34" viewBox="0 0 29 34" fill="none" xmlns="http://www.w3.org/2000/svg">
<path fill-rule="evenodd" clip-rule="evenodd" d="M18.8675 1.49146C19.3222 1.74495 19.5453 2.27584 19.4084 2.77806L16.4023 13.8004H27.3724C27.8232 13.8004 28.231 14.0678 28.4106 14.4812C28.5903 14.8947 28.5075 15.3753 28.2 15.7048L12.3517 32.6851C11.9965 33.0657 11.4276 33.1549 10.9729 32.9014C10.5182 32.648 10.295 32.1171 10.432 31.6148L13.4381 20.5925H2.46798C2.01721 20.5925 1.60941 20.3251 1.42975 19.9117C1.2501 19.4982 1.33285 19.0176 1.64041 18.6881L17.4887 1.7078C17.8439 1.32725 18.4128 1.23798 18.8675 1.49146Z" fill="white" stroke="black" stroke-linecap="round" stroke-linejoin="round"/>
</svg>
