<svg width="38" height="37" viewBox="0 0 38 37" fill="none" xmlns="http://www.w3.org/2000/svg">
<path fill-rule="evenodd" clip-rule="evenodd" d="M23.0179 3.05933C23.4725 3.31282 23.6957 3.84371 23.5588 4.34593L20.5527 15.3683H31.5228C31.9736 15.3683 32.3814 15.6357 32.561 16.0491C32.7407 16.4625 32.6579 16.9431 32.3504 17.2727L16.5021 34.253C16.1469 34.6335 15.578 34.7228 15.1233 34.4693C14.6686 34.2158 14.4454 33.6849 14.5824 33.1827L17.5885 22.1604H6.61837C6.16761 22.1604 5.7598 21.8929 5.58014 21.4795C5.40049 21.0661 5.48324 20.5855 5.7908 20.256L21.6391 3.27568C21.9943 2.89512 22.5632 2.80585 23.0179 3.05933Z" fill="white" stroke="black" stroke-linecap="round" stroke-linejoin="round"/>
</svg>
