<svg width="38" height="37" viewBox="0 0 38 37" fill="none" xmlns="http://www.w3.org/2000/svg">
<path fill-rule="evenodd" clip-rule="evenodd" d="M22.9476 2.79517C23.4022 3.04866 23.6254 3.57955 23.4885 4.08177L20.4824 15.1041H31.4525C31.9032 15.1041 32.3111 15.3715 32.4907 15.785C32.6704 16.1984 32.5876 16.679 32.28 17.0085L16.4318 33.9888C16.0766 34.3694 15.5077 34.4586 15.053 34.2052C14.5983 33.9517 14.3751 33.4208 14.5121 32.9186L17.5182 21.8962H6.54806C6.09729 21.8962 5.68948 21.6288 5.50983 21.2154C5.33018 20.8019 5.41292 20.3213 5.72049 19.9918L21.5688 3.01152C21.9239 2.63096 22.4929 2.54169 22.9476 2.79517Z" stroke="white" stroke-linecap="round" stroke-linejoin="round"/>
</svg>
