<svg width="625" height="770" viewBox="0 0 625 770" fill="none" xmlns="http://www.w3.org/2000/svg">
<path d="M19.6371 876.414C8.863 876.414 0.128906 867.68 0.128906 856.906L0.128906 -117.341C0.128906 -135.714 15.0232 -150.608 33.3962 -150.608V-150.608C48.9816 -150.608 62.4778 -139.788 65.8672 -124.576L242.709 669.125C251.657 709.172 258.736 748.813 263.946 788.051C264.356 791.134 267.65 792.931 270.458 791.594V791.594C272.141 790.793 273.168 789.05 273.057 787.189C270.919 751.252 269.85 712.345 269.85 670.471L269.85 -131.383C269.85 -142.001 278.458 -150.608 289.076 -150.608V-150.608C299.694 -150.608 308.301 -142.001 308.301 -131.383L308.301 843.147C308.301 861.52 293.407 876.414 275.034 876.414V876.414C259.449 876.414 245.952 865.594 242.563 850.382L65.7216 56.6805C60.821 35.144 56.8628 16.2996 53.847 0.147172C51.4331 -14.6289 48.8614 -33.1597 46.132 -55.4452C45.7517 -58.5509 42.4399 -60.3776 39.6149 -59.0326V-59.0326C37.9586 -58.244 36.9338 -56.5431 37.0084 -54.7101C38.4329 -19.6994 39.1452 17.4308 39.1452 56.6805L39.1452 856.906C39.1452 867.68 30.4111 876.414 19.6371 876.414V876.414Z" fill="#060606"/>
<path d="M383.278 771.7C383.278 792.943 374.544 810.164 363.77 810.164C352.996 810.164 344.262 792.943 344.262 771.7L344.262 -2.04365C344.262 -23.2868 352.996 -40.5078 363.77 -40.5078C374.544 -40.5078 383.278 -23.2868 383.278 -2.04362L383.278 771.7Z" fill="#060606"/>
<path d="M433.532 831.234C422.758 831.234 414.023 822.5 414.023 811.726L414.023 -6.03869C414.023 -16.8128 422.758 -25.5469 433.532 -25.5469V-25.5469C444.306 -25.5469 453.04 -16.8128 453.04 -6.03869L453.04 370.809C453.04 373.307 455.065 375.332 457.563 375.332V375.332C460.062 375.332 462.074 373.306 462.205 370.811C462.671 361.938 464.517 353.339 467.742 345.014C471.511 334.533 476.223 323.678 481.878 312.449L641.633 -13.4629C645.258 -20.859 652.777 -25.5469 661.014 -25.5469V-25.5469C676.982 -25.5469 687.421 -8.80887 680.397 5.53139L504.671 364.302C498.132 377.651 498.067 393.258 504.493 406.661L691.968 797.672C699.425 813.226 688.088 831.234 670.839 831.234V831.234C661.798 831.234 653.563 826.033 649.679 817.869L481.878 465.165C477.731 456.182 472.831 444.953 467.176 431.478C463.278 422.188 459.917 413.609 457.093 405.742C455.593 401.563 449.953 400.725 447.395 404.354V404.354C446.332 405.861 446.123 407.804 446.784 409.525C449.531 416.684 451.24 423.253 451.909 429.232C452.663 435.221 453.04 447.947 453.04 467.411L453.04 811.726C453.04 822.5 444.306 831.234 433.532 831.234V831.234Z" fill="#060606"/>
</svg>
