<svg width="484" height="71" viewBox="0 0 484 71" fill="none" xmlns="http://www.w3.org/2000/svg">
<mask id="path-1-outside-1_493_41" maskUnits="userSpaceOnUse" x="0" y="0.696289" width="484" height="70" fill="black">
<rect fill="white" y="0.696289" width="484" height="70"/>
<path d="M11.6914 68.4053H1V2.72949H38.1055V11.8037H11.6914V32.2881H36.3984V41.3174H11.6914V68.4053Z"/>
<path d="M68.5176 2.72949C74.1777 2.72949 78.8496 3.41829 82.5332 4.7959C86.2467 6.1735 89.002 8.26986 90.7988 11.085C92.6256 13.9001 93.5391 17.4788 93.5391 21.8213C93.5391 25.0557 92.9401 27.8109 91.7422 30.0869C90.5443 32.363 88.972 34.2497 87.0254 35.7471C85.0788 37.2445 82.9974 38.4424 80.7812 39.3408L99.4238 68.4053H87.25L71.3926 42.0811H60.8359V68.4053H50.0547V2.72949H68.5176ZM67.7988 11.7139H60.8359V33.1865H68.293C73.2943 33.1865 76.918 32.2581 79.1641 30.4014C81.4401 28.5446 82.5781 25.8044 82.5781 22.1807C82.5781 18.3773 81.3652 15.682 78.9395 14.0947C76.5436 12.5075 72.8301 11.7139 67.7988 11.7139Z"/>
<path d="M167.121 35.4775C167.121 40.5387 166.477 45.1507 165.189 49.3135C163.932 53.4463 162.03 57.0101 159.484 60.0049C156.939 62.9697 153.749 65.2607 149.916 66.8779C146.083 68.4951 141.59 69.3037 136.439 69.3037C131.199 69.3037 126.646 68.4951 122.783 66.8779C118.95 65.2607 115.76 62.9548 113.215 59.96C110.699 56.9652 108.812 53.3864 107.555 49.2236C106.297 45.0609 105.668 40.4489 105.668 35.3877C105.668 28.6195 106.776 22.7197 108.992 17.6885C111.238 12.6273 114.637 8.7041 119.189 5.91895C123.771 3.10384 129.551 1.69629 136.529 1.69629C143.357 1.69629 149.033 3.08887 153.555 5.87402C158.077 8.65918 161.461 12.5824 163.707 17.6436C165.983 22.6748 167.121 28.6195 167.121 35.4775ZM116.988 35.4775C116.988 40.5387 117.677 44.9261 119.055 48.6396C120.432 52.3232 122.544 55.1683 125.389 57.1748C128.264 59.1514 131.947 60.1396 136.439 60.1396C140.962 60.1396 144.645 59.1514 147.49 57.1748C150.335 55.1683 152.432 52.3232 153.779 48.6396C155.127 44.9261 155.801 40.5387 155.801 35.4775C155.801 27.7809 154.258 21.7614 151.174 17.4189C148.119 13.0465 143.238 10.8604 136.529 10.8604C132.037 10.8604 128.339 11.8486 125.434 13.8252C122.559 15.8018 120.432 18.6318 119.055 22.3154C117.677 25.9691 116.988 30.3564 116.988 35.4775Z"/>
<path d="M236.031 68.4053H222.779L190.615 15.9814H190.211C190.331 17.7484 190.436 19.6201 190.525 21.5967C190.645 23.5732 190.735 25.6097 190.795 27.7061C190.885 29.8024 190.96 31.9287 191.02 34.085V68.4053H181.227V2.72949H194.389L226.508 54.7939H226.822C226.762 53.2666 226.688 51.5146 226.598 49.5381C226.508 47.5615 226.418 45.5251 226.328 43.4287C226.268 41.3024 226.223 39.251 226.193 37.2744V2.72949H236.031V68.4053Z"/>
<path d="M276.057 68.4053H265.23V11.8936H246.004V2.72949H295.238V11.8936H276.057V68.4053Z"/>
<path d="M342.496 68.4053H305.301V2.72949H342.496V11.8037H316.082V29.6377H340.834V38.667H316.082V59.2861H342.496V68.4053Z"/>
<path d="M411.496 68.4053H398.244L366.08 15.9814H365.676C365.796 17.7484 365.9 19.6201 365.99 21.5967C366.11 23.5732 366.2 25.6097 366.26 27.7061C366.35 29.8024 366.424 31.9287 366.484 34.085V68.4053H356.691V2.72949H369.854L401.973 54.7939H402.287C402.227 53.2666 402.152 51.5146 402.062 49.5381C401.973 47.5615 401.883 45.5251 401.793 43.4287C401.733 41.3024 401.688 39.251 401.658 37.2744V2.72949H411.496V68.4053Z"/>
<path d="M482.068 34.9385C482.068 42.3356 480.691 48.5199 477.936 53.4912C475.18 58.4326 471.182 62.1611 465.941 64.6768C460.701 67.1624 454.382 68.4053 446.984 68.4053H428.746V2.72949H448.961C455.759 2.72949 461.629 3.95736 466.57 6.41309C471.512 8.83887 475.33 12.4476 478.025 17.2393C480.721 22.001 482.068 27.9007 482.068 34.9385ZM470.838 35.2529C470.838 29.8623 469.984 25.43 468.277 21.9561C466.6 18.4821 464.115 15.9066 460.82 14.2295C457.556 12.5225 453.528 11.6689 448.736 11.6689H439.527V59.376H447.164C455.1 59.376 461.03 57.3545 464.953 53.3115C468.876 49.2686 470.838 43.249 470.838 35.2529Z"/>
</mask>
<path d="M11.6914 68.4053H1V2.72949H38.1055V11.8037H11.6914V32.2881H36.3984V41.3174H11.6914V68.4053Z" stroke="white" stroke-width="2" mask="url(#path-1-outside-1_493_41)"/>
<path d="M68.5176 2.72949C74.1777 2.72949 78.8496 3.41829 82.5332 4.7959C86.2467 6.1735 89.002 8.26986 90.7988 11.085C92.6256 13.9001 93.5391 17.4788 93.5391 21.8213C93.5391 25.0557 92.9401 27.8109 91.7422 30.0869C90.5443 32.363 88.972 34.2497 87.0254 35.7471C85.0788 37.2445 82.9974 38.4424 80.7812 39.3408L99.4238 68.4053H87.25L71.3926 42.0811H60.8359V68.4053H50.0547V2.72949H68.5176ZM67.7988 11.7139H60.8359V33.1865H68.293C73.2943 33.1865 76.918 32.2581 79.1641 30.4014C81.4401 28.5446 82.5781 25.8044 82.5781 22.1807C82.5781 18.3773 81.3652 15.682 78.9395 14.0947C76.5436 12.5075 72.8301 11.7139 67.7988 11.7139Z" stroke="white" stroke-width="2" mask="url(#path-1-outside-1_493_41)"/>
<path d="M167.121 35.4775C167.121 40.5387 166.477 45.1507 165.189 49.3135C163.932 53.4463 162.03 57.0101 159.484 60.0049C156.939 62.9697 153.749 65.2607 149.916 66.8779C146.083 68.4951 141.59 69.3037 136.439 69.3037C131.199 69.3037 126.646 68.4951 122.783 66.8779C118.95 65.2607 115.76 62.9548 113.215 59.96C110.699 56.9652 108.812 53.3864 107.555 49.2236C106.297 45.0609 105.668 40.4489 105.668 35.3877C105.668 28.6195 106.776 22.7197 108.992 17.6885C111.238 12.6273 114.637 8.7041 119.189 5.91895C123.771 3.10384 129.551 1.69629 136.529 1.69629C143.357 1.69629 149.033 3.08887 153.555 5.87402C158.077 8.65918 161.461 12.5824 163.707 17.6436C165.983 22.6748 167.121 28.6195 167.121 35.4775ZM116.988 35.4775C116.988 40.5387 117.677 44.9261 119.055 48.6396C120.432 52.3232 122.544 55.1683 125.389 57.1748C128.264 59.1514 131.947 60.1396 136.439 60.1396C140.962 60.1396 144.645 59.1514 147.49 57.1748C150.335 55.1683 152.432 52.3232 153.779 48.6396C155.127 44.9261 155.801 40.5387 155.801 35.4775C155.801 27.7809 154.258 21.7614 151.174 17.4189C148.119 13.0465 143.238 10.8604 136.529 10.8604C132.037 10.8604 128.339 11.8486 125.434 13.8252C122.559 15.8018 120.432 18.6318 119.055 22.3154C117.677 25.9691 116.988 30.3564 116.988 35.4775Z" stroke="white" stroke-width="2" mask="url(#path-1-outside-1_493_41)"/>
<path d="M236.031 68.4053H222.779L190.615 15.9814H190.211C190.331 17.7484 190.436 19.6201 190.525 21.5967C190.645 23.5732 190.735 25.6097 190.795 27.7061C190.885 29.8024 190.96 31.9287 191.02 34.085V68.4053H181.227V2.72949H194.389L226.508 54.7939H226.822C226.762 53.2666 226.688 51.5146 226.598 49.5381C226.508 47.5615 226.418 45.5251 226.328 43.4287C226.268 41.3024 226.223 39.251 226.193 37.2744V2.72949H236.031V68.4053Z" stroke="white" stroke-width="2" mask="url(#path-1-outside-1_493_41)"/>
<path d="M276.057 68.4053H265.23V11.8936H246.004V2.72949H295.238V11.8936H276.057V68.4053Z" stroke="white" stroke-width="2" mask="url(#path-1-outside-1_493_41)"/>
<path d="M342.496 68.4053H305.301V2.72949H342.496V11.8037H316.082V29.6377H340.834V38.667H316.082V59.2861H342.496V68.4053Z" stroke="white" stroke-width="2" mask="url(#path-1-outside-1_493_41)"/>
<path d="M411.496 68.4053H398.244L366.08 15.9814H365.676C365.796 17.7484 365.9 19.6201 365.99 21.5967C366.11 23.5732 366.2 25.6097 366.26 27.7061C366.35 29.8024 366.424 31.9287 366.484 34.085V68.4053H356.691V2.72949H369.854L401.973 54.7939H402.287C402.227 53.2666 402.152 51.5146 402.062 49.5381C401.973 47.5615 401.883 45.5251 401.793 43.4287C401.733 41.3024 401.688 39.251 401.658 37.2744V2.72949H411.496V68.4053Z" stroke="white" stroke-width="2" mask="url(#path-1-outside-1_493_41)"/>
<path d="M482.068 34.9385C482.068 42.3356 480.691 48.5199 477.936 53.4912C475.18 58.4326 471.182 62.1611 465.941 64.6768C460.701 67.1624 454.382 68.4053 446.984 68.4053H428.746V2.72949H448.961C455.759 2.72949 461.629 3.95736 466.57 6.41309C471.512 8.83887 475.33 12.4476 478.025 17.2393C480.721 22.001 482.068 27.9007 482.068 34.9385ZM470.838 35.2529C470.838 29.8623 469.984 25.43 468.277 21.9561C466.6 18.4821 464.115 15.9066 460.82 14.2295C457.556 12.5225 453.528 11.6689 448.736 11.6689H439.527V59.376H447.164C455.1 59.376 461.03 57.3545 464.953 53.3115C468.876 49.2686 470.838 43.249 470.838 35.2529Z" stroke="white" stroke-width="2" mask="url(#path-1-outside-1_493_41)"/>
</svg>
