<svg width="1212" height="713" viewBox="0 0 1212 713" fill="none" xmlns="http://www.w3.org/2000/svg">
<mask id="mask0_949_591" style="mask-type:alpha" maskUnits="userSpaceOnUse" x="0" y="0" width="1212" height="713">
<path d="M36.6603 705.813H0.765625V1.08093H55.2979L125.707 556.652H127.778L126.397 1.08093H163.672V705.813H109.14L42.1826 155.646H38.0409L36.6603 705.813Z" fill="white"/>
<path d="M220.302 705.813H180.956V1.08093H220.302V705.813Z" fill="white"/>
<path d="M273.233 705.813H235.958V1.08093H273.233V256.168H279.446L329.146 1.08093H369.873L322.243 242.117C318.562 262.293 313.73 280.308 307.747 296.161C301.765 312.013 291.18 319.219 275.994 317.778V329.668C290.72 328.947 300.614 332.55 305.676 340.477C310.738 347.682 314.88 359.932 318.101 377.226L376.775 705.813H337.429L281.516 395.601H273.233V705.813Z" fill="white"/>
<path d="M413.732 705.813H377.147V1.08093H479.309V61.6101H413.732V304.808H464.813V362.094H413.732V705.813Z" fill="white"/>
<path d="M500.174 705.813H464.279L509.838 1.08093H562.299L609.239 705.813H571.273L558.848 496.123H512.599L500.174 705.813ZM515.36 449.645H556.087L537.449 131.867H534.688L515.36 449.645Z" fill="white"/>
<path d="M611.088 705.813V1.08093H680.117C687.019 1.08093 693.922 2.88239 700.825 6.48531C707.728 10.8088 713.94 16.9338 719.463 24.8602C724.985 33.5072 729.587 44.316 733.268 57.2866C736.49 70.2571 738.1 85.7497 738.1 103.764V245.359C738.1 294.359 725.445 318.859 700.135 318.859V329.668C701.055 329.668 701.976 329.668 702.896 329.668C726.366 329.668 738.1 350.204 738.1 391.278V705.813H698.754V395.601C698.754 363.896 692.542 348.043 680.117 348.043H648.364V705.813H611.088ZM698.754 52.963H648.364V300.484H680.117C692.542 300.484 698.754 284.271 698.754 251.845V52.963Z" fill="white"/>
<path d="M866.336 610.696C866.336 641.681 861.044 666.541 850.46 685.277C839.876 703.291 824.459 712.298 804.211 712.298C784.883 712.298 770.387 702.21 760.723 682.034C751.059 661.858 746.227 638.078 746.227 610.696V388.035H785.573V600.968C785.573 613.218 786.724 626.189 789.025 639.88C791.786 653.571 798.229 660.416 808.353 660.416C812.955 660.416 816.406 658.255 818.707 653.931C821.468 649.608 823.309 644.564 824.229 638.799C825.61 632.314 826.3 625.828 826.3 619.343C826.76 612.137 826.99 606.012 826.99 600.968V1.08093H866.336V610.696Z" fill="white"/>
<path d="M907.036 705.813H871.142L916.7 1.08093H969.162L1016.1 705.813H978.135L965.71 496.123H919.461L907.036 705.813ZM922.222 449.645H962.949L944.311 131.867H941.55L922.222 449.645Z" fill="white"/>
<path d="M1051.77 705.813H1015.88V0H1074.55L1112.52 506.932H1113.21L1151.87 0H1211.23V705.813H1174.64V154.566H1171.19L1127.71 705.813H1098.02L1055.92 154.566H1051.77V705.813Z" fill="white"/>
</mask>
<g mask="url(#mask0_949_591)">
<g filter="url(#filter0_f_949_591)">
<rect x="-247.242" y="529.304" width="1396.79" height="1200.28" rx="213.724" transform="rotate(-55.1528 -247.242 529.304)" fill="white"/>
</g>
</g>
<defs>
<filter id="filter0_f_949_591" x="-393.465" y="-763.235" width="2075.6" height="2124.59" filterUnits="userSpaceOnUse" color-interpolation-filters="sRGB">
<feFlood flood-opacity="0" result="BackgroundImageFix"/>
<feBlend mode="normal" in="SourceGraphic" in2="BackgroundImageFix" result="shape"/>
<feGaussianBlur stdDeviation="115" result="effect1_foregroundBlur_949_591"/>
</filter>
</defs>
</svg>
